<svg width="115" height="115" viewBox="0 0 115 115" fill="none" xmlns="http://www.w3.org/2000/svg">
<g clip-path="url(#clip0_699_168)">
<path d="M42.8852 4.79175H41.9269L18.2081 15.8126C17.787 15.9963 17.4275 16.2973 17.1727 16.6796C16.9178 17.0619 16.7782 17.5094 16.7706 17.9688V35.698L15.3331 36.8959L5.74979 44.8022C5.41732 44.9899 5.14848 45.2726 4.97774 45.6141C4.807 45.9555 4.74213 46.3402 4.79145 46.7188V68.2813C4.77027 68.6566 4.84757 69.0309 5.01567 69.3671C5.18377 69.7033 5.43684 69.9898 5.74979 70.198L15.3331 78.1042L16.7706 79.3022V97.0313C16.7782 97.4907 16.9178 97.9383 17.1727 98.3206C17.4275 98.7029 17.787 99.0039 18.2081 99.1876L41.9269 109.969H42.8852L44.3227 109.49L53.906 103.021V61.0938H50.3123C49.3592 61.0938 48.4451 60.7152 47.7711 60.0412C47.0972 59.3673 46.7185 58.4532 46.7185 57.5001C46.7185 56.547 47.0972 55.6329 47.7711 54.9589C48.4451 54.285 49.3592 53.9063 50.3123 53.9063H53.906V11.7397L44.3227 5.27091L42.8852 4.79175ZM21.5623 32.3438L28.2706 36.8959C28.6668 37.1609 29.0064 37.502 29.2695 37.8994C29.5326 38.2968 29.7141 38.7427 29.8033 39.2109C29.8925 39.6791 29.8876 40.1604 29.789 40.6267C29.6904 41.0931 29.5 41.5351 29.229 41.9272C28.9371 42.4327 28.5184 42.8533 28.0142 43.1475C27.5099 43.4416 26.9377 43.5991 26.354 43.6042C26.0027 43.6183 25.6522 43.562 25.323 43.4386C24.9938 43.3151 24.6927 43.1271 24.4373 42.8855L21.5623 40.9688V32.3438ZM9.58312 53.9063H17.9685C18.9217 53.9063 19.8357 54.285 20.5097 54.9589C21.1837 55.6329 21.5623 56.547 21.5623 57.5001C21.5623 58.4532 21.1837 59.3673 20.5097 60.0412C19.8357 60.7152 18.9217 61.0938 17.9685 61.0938H9.58312V53.9063ZM21.5623 74.0313L24.4373 72.1147C24.8102 71.8492 25.2335 71.6629 25.6812 71.5672C26.1289 71.4715 26.5914 71.4684 27.0402 71.5582C27.4891 71.648 27.9149 71.8287 28.2913 72.0892C28.6677 72.3497 28.9868 72.6845 29.229 73.073C29.5 73.465 29.6904 73.9071 29.789 74.3734C29.8876 74.8398 29.8925 75.3211 29.8033 75.7893C29.7141 76.2575 29.5326 76.7033 29.2695 77.1007C29.0064 77.4982 28.6668 77.8393 28.2706 78.1042L21.5623 82.6563V74.0313ZM46.7185 44.5626L37.1352 54.1459V60.8542L46.7185 70.4376V82.8959L38.5727 91.2813C37.8028 91.8441 36.8888 92.1764 35.9373 92.2397C34.9857 92.1764 34.0718 91.8441 33.3019 91.2813C32.6279 90.5694 32.2522 89.6263 32.2522 88.6459C32.2522 87.6655 32.6279 86.7224 33.3019 86.0105L39.531 80.0209V73.3126L29.9477 63.7292V51.2709L39.531 41.6876V34.9792L33.3019 28.9897C32.8075 28.687 32.3882 28.2762 32.0756 27.7881C31.7629 27.3 31.565 26.7473 31.4967 26.1717C31.4285 25.5961 31.4917 25.0125 31.6815 24.4648C31.8714 23.9172 32.183 23.4197 32.5928 23.0098C33.0027 22.5999 33.5002 22.2883 34.0479 22.0985C34.5955 21.9086 35.1791 21.8455 35.7548 21.9137C36.3304 21.982 36.883 22.1799 37.3711 22.4925C37.8592 22.8052 38.27 23.2245 38.5727 23.7188L46.7185 32.1042V44.5626Z" fill="#60A018"/>
<path d="M109.25 44.8021L99.6667 36.8958L98.2292 35.6979V17.9687C98.2215 17.5093 98.082 17.0618 97.8271 16.6795C97.5722 16.2972 97.2128 15.9962 96.7917 15.8125L73.0729 5.03125H72.1146L70.6771 5.51042L61.0938 11.9792V53.9062H64.6875C65.6406 53.9062 66.5547 54.2849 67.2287 54.9588C67.9026 55.6328 68.2812 56.5469 68.2812 57.5C68.2812 58.4531 67.9026 59.3672 67.2287 60.0412C66.5547 60.7151 65.6406 61.0937 64.6875 61.0937H61.0938V103.26L70.6771 109.729L72.1146 110.208H73.0729L96.7917 99.4271C97.2128 99.2434 97.5722 98.9424 97.8271 98.5601C98.082 98.1778 98.2215 97.7302 98.2292 97.2708V79.3021L99.6667 78.1042L109.25 70.1979C109.563 69.9897 109.816 69.7033 109.984 69.3671C110.152 69.0308 110.23 68.6565 110.208 68.2812V46.7187C110.258 46.3402 110.193 45.9555 110.022 45.614C109.851 45.2725 109.582 44.9898 109.25 44.8021ZM93.4375 40.9687L90.5625 42.8854C90.3071 43.127 90.006 43.315 89.6768 43.4385C89.3476 43.5619 88.9971 43.6183 88.6458 43.6042C88.0621 43.599 87.4899 43.4415 86.9856 43.1474C86.4814 42.8533 86.0627 42.4326 85.7708 41.9271C85.4998 41.535 85.3094 41.093 85.2108 40.6266C85.1122 40.1603 85.1073 39.679 85.1965 39.2108C85.2857 38.7426 85.4671 38.2968 85.7303 37.8993C85.9934 37.5019 86.3329 37.1608 86.7292 36.8958L93.4375 32.3437V40.9687ZM68.2812 70.4375L77.8646 60.8542V54.1458L68.2812 44.5625V32.1042L76.4271 23.7187C77.1612 23.2693 78.0252 23.08 78.88 23.1814C79.7348 23.2827 80.5305 23.6688 81.1392 24.2775C81.7478 24.8861 82.1339 25.6819 82.2353 26.5367C82.3366 27.3915 82.1474 28.2555 81.6979 28.9896L75.4687 34.9792V41.6875L85.0521 51.2708V63.7292L75.4687 73.3125V80.0208L81.6979 86.0104C82.3719 86.7224 82.7475 87.6655 82.7475 88.6458C82.7475 89.6262 82.3719 90.5693 81.6979 91.2812C80.9619 91.9059 80.0279 92.2488 79.0625 92.2488C78.0971 92.2488 77.1631 91.9059 76.4271 91.2812L68.2812 82.8958V70.4375ZM93.4375 82.6563L86.7292 78.1042C86.3329 77.8392 85.9934 77.4981 85.7303 77.1007C85.4671 76.7032 85.2857 76.2574 85.1965 75.7892C85.1073 75.321 85.1122 74.8397 85.2108 74.3734C85.3094 73.907 85.4998 73.465 85.7708 73.0729C86.013 72.6844 86.3321 72.3496 86.7085 72.0891C87.0849 71.8286 87.5107 71.6479 87.9595 71.5581C88.4084 71.4683 88.8709 71.4714 89.3186 71.5671C89.7662 71.6628 90.1896 71.8491 90.5625 72.1146L93.4375 74.0312V82.6563ZM105.417 61.0937H97.0312C96.0781 61.0937 95.164 60.7151 94.4901 60.0412C93.8161 59.3672 93.4375 58.4531 93.4375 57.5C93.4375 56.5469 93.8161 55.6328 94.4901 54.9588C95.164 54.2849 96.0781 53.9062 97.0312 53.9062H105.417V61.0937Z" fill="#60A018"/>
</g>
<defs>
<clipPath id="clip0_699_168">
<rect width="115" height="115" fill="white"/>
</clipPath>
</defs>
</svg>
