<svg width="115" height="115" viewBox="0 0 115 115" fill="none" xmlns="http://www.w3.org/2000/svg">
<g clip-path="url(#clip0_699_176)">
<path d="M38.4849 22.9362C38.4849 22.9362 38.4849 18.3763 38.4849 16.5524L33.7426 17.4644C30.2771 19.2883 25.3524 20.2003 19.6982 20.2003C14.1351 20.2003 9.11928 19.2883 5.65378 17.4644L0.820312 15.458C0.820312 17.282 1.00271 22.9362 1.00271 22.9362C1.00271 24.7601 1.00271 28.408 1.00271 28.408C1.00271 29.32 1.00271 32.9679 1.00271 32.9679C1.00271 34.7919 1.00271 38.4398 1.00271 38.4398C1.00271 40.2637 1.00271 43.9116 1.00271 43.9116C1.00271 45.7356 1.00271 49.3835 1.00271 49.3835C1.00271 51.2074 1.00271 54.8553 1.00271 54.8553C1.00271 56.6793 1.00271 60.3272 1.00271 60.3272C1.00271 62.1511 1.00271 65.799 1.00271 65.799C1.00271 67.623 1.00271 71.2709 1.00271 71.2709C1.00271 73.0948 1.00271 76.7427 1.00271 76.7427C1.00271 78.5667 1.00271 82.2146 1.00271 82.2146C1.00271 84.0385 1.00271 86.7744 1.00271 86.7744C1.00271 88.5984 1.00271 92.2463 1.00271 92.2463C1.00271 94.0702 1.00271 97.7181 1.00271 97.7181C1.00271 99.5421 1.00271 103.19 1.00271 103.19C1.00271 107.75 9.39288 111.307 19.7894 111.307C30.1859 111.307 38.4849 107.75 38.4849 103.19C38.4849 103.19 38.3937 99.5421 38.3937 97.7181C38.3937 97.7181 38.3937 94.0702 38.3937 92.2463C38.3937 92.2463 38.3937 88.5984 38.3937 86.7744C38.3937 86.7744 38.3937 84.0385 38.3937 82.2146C38.3937 82.2146 38.3937 78.5667 38.3937 76.7427C38.3937 76.7427 38.3937 73.0948 38.3937 71.2709C38.3937 71.2709 38.3937 67.623 38.3937 65.799C38.3937 65.799 38.3937 62.1511 38.3937 60.3272C38.3937 60.3272 38.3937 56.6793 38.3937 54.8553C38.3937 54.8553 38.3937 51.2074 38.3937 49.3835C38.3937 49.3835 38.3937 45.7356 38.3937 43.9116C38.3937 43.9116 38.3937 40.2637 38.3937 38.4398C38.3937 38.4398 38.3937 34.7919 38.3937 32.9679C38.3937 32.9679 38.3937 29.32 38.3937 28.408C38.4849 28.408 38.4849 24.7601 38.4849 22.9362Z" fill="#60A018"/>
<path d="M19.79 3.60229C9.39347 3.60229 0.912109 7.25019 0.912109 11.7189C0.912109 13.8164 2.73606 15.3668 5.74558 17.0995C9.21108 18.9235 14.2269 19.8354 19.79 19.8354C25.353 19.8354 30.3689 18.9235 33.8344 17.0995C36.8439 15.2756 38.6679 13.7252 38.6679 11.6277C38.6679 7.25019 30.1865 3.60229 19.79 3.60229Z" fill="#B4DC88"/>
<path d="M114.361 17.4644L112.263 15.4581C108.798 17.282 100.864 20.1091 95.3007 20.1091C89.7376 20.1091 82.077 16.9172 78.6115 15.0933L75.9668 17.3732C75.9668 19.1971 75.9668 97.627 75.9668 97.627C75.9668 99.4509 76.4228 103.099 76.4228 103.099C76.4228 107.659 84.9041 111.215 95.3007 111.215C105.697 111.215 114.179 107.659 114.179 103.099C113.996 103.19 114.361 19.2883 114.361 17.4644Z" fill="#60A018"/>
<path d="M95.2099 3.60229C84.8134 3.60229 76.332 7.25019 76.332 11.7189C76.332 13.8164 78.156 15.3668 81.1655 17.0995C84.631 18.9235 89.6469 19.8354 95.2099 19.8354C100.773 19.8354 105.789 18.9235 109.254 17.0995C112.264 15.2756 114.088 13.7252 114.088 11.6277C114.088 7.25019 105.606 3.60229 95.2099 3.60229Z" fill="#B4DC88"/>
<path d="M19.7899 36.8893C8.75496 36.8893 0 32.9678 0 27.8607C0 27.3135 0.36479 26.9487 0.911975 26.9487C1.45916 26.9487 1.82395 27.3135 1.82395 27.8607C1.82395 31.3262 9.02855 35.0653 19.7899 35.0653C30.5512 35.0653 37.7558 31.3262 37.7558 27.8607C37.7558 27.3135 38.1205 26.9487 38.6677 26.9487C39.2149 26.9487 39.5797 27.3135 39.5797 27.8607C39.4885 32.8766 30.8247 36.8893 19.7899 36.8893Z" fill="#466D1A"/>
<path d="M19.7899 42.2701C8.75496 42.2701 0 38.3486 0 33.2416C0 32.6944 0.36479 32.3296 0.911975 32.3296C1.45916 32.3296 1.82395 32.6944 1.82395 33.2416C1.82395 36.7071 9.02855 40.4462 19.7899 40.4462C30.5512 40.4462 37.7558 36.7071 37.7558 33.2416C37.7558 32.6944 38.1205 32.3296 38.6677 32.3296C39.2149 32.3296 39.5797 32.6944 39.5797 33.2416C39.4885 38.3486 30.8247 42.2701 19.7899 42.2701Z" fill="#466D1A"/>
<path d="M19.7899 47.6507C8.75496 47.6507 0 43.7292 0 38.6222C0 38.075 0.36479 37.7102 0.911975 37.7102C1.45916 37.7102 1.82395 38.075 1.82395 38.6222C1.82395 42.0877 9.02855 45.8268 19.7899 45.8268C30.5512 45.8268 37.7558 42.0877 37.7558 38.6222C37.7558 38.075 38.1205 37.7102 38.6677 37.7102C39.2149 37.7102 39.5797 38.075 39.5797 38.6222C39.4885 43.7292 30.8247 47.6507 19.7899 47.6507Z" fill="#466D1A"/>
<path d="M19.7899 26.128C8.75496 26.128 0 22.2065 0 17.0995C0 16.5523 0.36479 16.1875 0.911975 16.1875C1.45916 16.1875 1.82395 16.5523 1.82395 17.0995C1.82395 20.565 9.02855 24.3041 19.7899 24.3041C30.5512 24.3041 37.7558 20.565 37.7558 17.0995C37.7558 16.5523 38.1205 16.1875 38.6677 16.1875C39.2149 16.1875 39.5797 16.5523 39.5797 17.0995C39.4885 22.1153 30.8247 26.128 19.7899 26.128Z" fill="#466D1A"/>
<path d="M19.7899 31.5086C8.75496 31.5086 0 27.5871 0 22.4801C0 21.9329 0.36479 21.5681 0.911975 21.5681C1.45916 21.5681 1.82395 21.9329 1.82395 22.4801C1.82395 25.9456 9.02855 29.6847 19.7899 29.6847C30.5512 29.6847 37.7558 25.9456 37.7558 22.4801C37.7558 21.9329 38.1205 21.5681 38.6677 21.5681C39.2149 21.5681 39.5797 21.9329 39.5797 22.4801C39.4885 27.496 30.8247 31.5086 19.7899 31.5086Z" fill="#466D1A"/>
<path d="M19.7899 53.0313C8.75496 53.0313 0 49.1099 0 44.0028C0 43.4556 0.36479 43.0908 0.911975 43.0908C1.45916 43.0908 1.82395 43.4556 1.82395 44.0028C1.82395 47.4683 9.02855 51.2074 19.7899 51.2074C30.5512 51.2074 37.7558 47.4683 37.7558 44.0028C37.7558 43.4556 38.1205 43.0908 38.6677 43.0908C39.2149 43.0908 39.5797 43.4556 39.5797 44.0028C39.4885 49.1099 30.8247 53.0313 19.7899 53.0313Z" fill="#466D1A"/>
<path d="M19.7899 58.412C8.75496 58.412 0 54.4905 0 49.3834C0 48.8362 0.36479 48.4714 0.911975 48.4714C1.45916 48.4714 1.82395 48.8362 1.82395 49.3834C1.82395 52.8489 9.02855 56.588 19.7899 56.588C30.5512 56.588 37.7558 52.8489 37.7558 49.3834C37.7558 48.8362 38.1205 48.4714 38.6677 48.4714C39.2149 48.4714 39.5797 48.8362 39.5797 49.3834C39.4885 54.4905 30.8247 58.412 19.7899 58.412Z" fill="#466D1A"/>
<path d="M19.7899 63.7926C8.75496 63.7926 0 59.8711 0 54.764C0 54.2168 0.36479 53.8521 0.911975 53.8521C1.45916 53.8521 1.82395 54.2168 1.82395 54.764C1.82395 58.2295 9.02855 61.9686 19.7899 61.9686C30.5512 61.9686 37.7558 58.2295 37.7558 54.764C37.7558 54.2168 38.1205 53.8521 38.6677 53.8521C39.2149 53.8521 39.5797 54.2168 39.5797 54.764C39.4885 59.8711 30.8247 63.7926 19.7899 63.7926Z" fill="#466D1A"/>
<path d="M19.7899 69.1732C8.75496 69.1732 0 65.2517 0 60.1446C0 59.5975 0.36479 59.2327 0.911975 59.2327C1.45916 59.2327 1.82395 59.5975 1.82395 60.1446C1.82395 63.6101 9.02855 67.3492 19.7899 67.3492C30.5512 67.3492 37.7558 63.6101 37.7558 60.1446C37.7558 59.5975 38.1205 59.2327 38.6677 59.2327C39.2149 59.2327 39.5797 59.5975 39.5797 60.1446C39.4885 65.2517 30.8247 69.1732 19.7899 69.1732Z" fill="#466D1A"/>
<path d="M19.7899 74.5538C8.75496 74.5538 0 70.6323 0 65.5253C0 64.9781 0.36479 64.6133 0.911975 64.6133C1.45916 64.6133 1.82395 64.9781 1.82395 65.5253C1.82395 68.9908 9.02855 72.7299 19.7899 72.7299C30.5512 72.7299 37.7558 68.9908 37.7558 65.5253C37.7558 64.9781 38.1205 64.6133 38.6677 64.6133C39.2149 64.6133 39.5797 64.9781 39.5797 65.5253C39.4885 70.6323 30.8247 74.5538 19.7899 74.5538Z" fill="#466D1A"/>
<path d="M19.7899 79.9347C8.75496 79.9347 0 76.0132 0 70.9061C0 70.3589 0.36479 69.9941 0.911975 69.9941C1.45916 69.9941 1.82395 70.3589 1.82395 70.9061C1.82395 74.3716 9.02855 78.1107 19.7899 78.1107C30.5512 78.1107 37.7558 74.3716 37.7558 70.9061C37.7558 70.3589 38.1205 69.9941 38.6677 69.9941C39.2149 69.9941 39.5797 70.3589 39.5797 70.9061C39.4885 76.0132 30.8247 79.9347 19.7899 79.9347Z" fill="#466D1A"/>
<path d="M19.7899 85.4063C8.75496 85.4063 0 81.4849 0 76.3778C0 75.8306 0.36479 75.4658 0.911975 75.4658C1.45916 75.4658 1.82395 75.8306 1.82395 76.3778C1.82395 79.8433 9.02855 83.5824 19.7899 83.5824C30.5512 83.5824 37.7558 79.8433 37.7558 76.3778C37.7558 75.8306 38.1205 75.4658 38.6677 75.4658C39.2149 75.4658 39.5797 75.8306 39.5797 76.3778C39.4885 81.3937 30.8247 85.4063 19.7899 85.4063Z" fill="#466D1A"/>
<path d="M19.7899 90.7872C8.75496 90.7872 0 86.8657 0 81.7587C0 81.2115 0.36479 80.8467 0.911975 80.8467C1.45916 80.8467 1.82395 81.2115 1.82395 81.7587C1.82395 85.2242 9.02855 88.9633 19.7899 88.9633C30.5512 88.9633 37.7558 85.2242 37.7558 81.7587C37.7558 81.2115 38.1205 80.8467 38.6677 80.8467C39.2149 80.8467 39.5797 81.2115 39.5797 81.7587C39.4885 86.7745 30.8247 90.7872 19.7899 90.7872Z" fill="#466D1A"/>
<path d="M19.7899 96.1678C8.75496 96.1678 0 92.2463 0 87.1393C0 86.5921 0.36479 86.2273 0.911975 86.2273C1.45916 86.2273 1.82395 86.5921 1.82395 87.1393C1.82395 90.6048 9.02855 94.3439 19.7899 94.3439C30.5512 94.3439 37.7558 90.6048 37.7558 87.1393C37.7558 86.5921 38.1205 86.2273 38.6677 86.2273C39.2149 86.2273 39.5797 86.5921 39.5797 87.1393C39.4885 92.1551 30.8247 96.1678 19.7899 96.1678Z" fill="#466D1A"/>
<path d="M19.7899 101.548C8.75496 101.548 0 97.6269 0 92.5199C0 91.9727 0.36479 91.6079 0.911975 91.6079C1.45916 91.6079 1.82395 91.9727 1.82395 92.5199C1.82395 95.9854 9.02855 99.7245 19.7899 99.7245C30.5512 99.7245 37.7558 95.9854 37.7558 92.5199C37.7558 91.9727 38.1205 91.6079 38.6677 91.6079C39.2149 91.6079 39.5797 91.9727 39.5797 92.5199C39.4885 97.5357 30.8247 101.548 19.7899 101.548Z" fill="#466D1A"/>
<path d="M19.7899 106.929C8.75496 106.929 0 103.008 0 97.9005C0 97.3533 0.36479 96.9885 0.911975 96.9885C1.45916 96.9885 1.82395 97.3533 1.82395 97.9005C1.82395 101.366 9.02855 105.105 19.7899 105.105C30.5512 105.105 37.7558 101.366 37.7558 97.9005C37.7558 97.3533 38.1205 96.9885 38.6677 96.9885C39.2149 96.9885 39.5797 97.3533 39.5797 97.9005C39.4885 102.916 30.8247 106.929 19.7899 106.929Z" fill="#466D1A"/>
<path d="M19.7899 112.31C8.75496 112.31 0 108.388 0 103.281C0 102.734 0.36479 102.369 0.911975 102.369C1.45916 102.369 1.82395 102.734 1.82395 103.281C1.82395 106.747 9.02855 110.486 19.7899 110.486C30.5512 110.486 37.7558 106.747 37.7558 103.281C37.7558 102.734 38.1205 102.369 38.6677 102.369C39.2149 102.369 39.5797 102.734 39.5797 103.281C39.4885 108.297 30.8247 112.31 19.7899 112.31Z" fill="#466D1A"/>
<path d="M19.7899 20.7475C8.75496 20.7475 0 16.826 0 11.719C0 6.61192 8.66376 2.69043 19.7899 2.69043C30.8247 2.69043 39.5797 6.61192 39.5797 11.719C39.5797 16.826 30.8247 20.7475 19.7899 20.7475ZM19.7899 4.51438C9.02855 4.51438 1.82395 8.25348 1.82395 11.719C1.82395 15.1845 9.02855 18.9236 19.7899 18.9236C30.5512 18.9236 37.7558 15.1845 37.7558 11.719C37.7558 8.25348 30.46 4.51438 19.7899 4.51438Z" fill="#466D1A"/>
<path d="M95.2098 36.8893C84.1749 36.8893 75.4199 32.9678 75.4199 27.8607C75.4199 27.3135 75.7847 26.9487 76.3319 26.9487C76.8791 26.9487 77.2439 27.3135 77.2439 27.8607C77.2439 31.3262 84.4485 35.0653 95.2098 35.0653C105.971 35.0653 113.176 31.3262 113.176 27.8607C113.176 27.3135 113.54 26.9487 114.088 26.9487C114.635 26.9487 115 27.3135 115 27.8607C114.908 32.8766 106.245 36.8893 95.2098 36.8893Z" fill="#466D1A"/>
<path d="M95.2098 42.2701C84.1749 42.2701 75.4199 38.3486 75.4199 33.2416C75.4199 32.6944 75.7847 32.3296 76.3319 32.3296C76.8791 32.3296 77.2439 32.6944 77.2439 33.2416C77.2439 36.7071 84.4485 40.4462 95.2098 40.4462C105.971 40.4462 113.176 36.7071 113.176 33.2416C113.176 32.6944 113.54 32.3296 114.088 32.3296C114.635 32.3296 115 32.6944 115 33.2416C114.908 38.3486 106.245 42.2701 95.2098 42.2701Z" fill="#466D1A"/>
<path d="M95.2098 47.6507C84.1749 47.6507 75.4199 43.7292 75.4199 38.6222C75.4199 38.075 75.7847 37.7102 76.3319 37.7102C76.8791 37.7102 77.2439 38.075 77.2439 38.6222C77.2439 42.0877 84.4485 45.8268 95.2098 45.8268C105.971 45.8268 113.176 42.0877 113.176 38.6222C113.176 38.075 113.54 37.7102 114.088 37.7102C114.635 37.7102 115 38.075 115 38.6222C114.908 43.7292 106.245 47.6507 95.2098 47.6507Z" fill="#466D1A"/>
<path d="M95.2098 26.128C84.1749 26.128 75.4199 22.2065 75.4199 17.0995C75.4199 16.5523 75.7847 16.1875 76.3319 16.1875C76.8791 16.1875 77.2439 16.5523 77.2439 17.0995C77.2439 20.565 84.4485 24.3041 95.2098 24.3041C105.971 24.3041 113.176 20.565 113.176 17.0995C113.176 16.5523 113.54 16.1875 114.088 16.1875C114.635 16.1875 115 16.5523 115 17.0995C114.908 22.1153 106.245 26.128 95.2098 26.128Z" fill="#466D1A"/>
<path d="M95.2098 31.5086C84.1749 31.5086 75.4199 27.5871 75.4199 22.4801C75.4199 21.9329 75.7847 21.5681 76.3319 21.5681C76.8791 21.5681 77.2439 21.9329 77.2439 22.4801C77.2439 25.9456 84.4485 29.6847 95.2098 29.6847C105.971 29.6847 113.176 25.9456 113.176 22.4801C113.176 21.9329 113.54 21.5681 114.088 21.5681C114.635 21.5681 115 21.9329 115 22.4801C114.908 27.496 106.245 31.5086 95.2098 31.5086Z" fill="#466D1A"/>
<path d="M95.2098 53.0313C84.1749 53.0313 75.4199 49.1099 75.4199 44.0028C75.4199 43.4556 75.7847 43.0908 76.3319 43.0908C76.8791 43.0908 77.2439 43.4556 77.2439 44.0028C77.2439 47.4683 84.4485 51.2074 95.2098 51.2074C105.971 51.2074 113.176 47.4683 113.176 44.0028C113.176 43.4556 113.54 43.0908 114.088 43.0908C114.635 43.0908 115 43.4556 115 44.0028C114.908 49.1099 106.245 53.0313 95.2098 53.0313Z" fill="#466D1A"/>
<path d="M95.2098 58.412C84.1749 58.412 75.4199 54.4905 75.4199 49.3834C75.4199 48.8362 75.7847 48.4714 76.3319 48.4714C76.8791 48.4714 77.2439 48.8362 77.2439 49.3834C77.2439 52.8489 84.4485 56.588 95.2098 56.588C105.971 56.588 113.176 52.8489 113.176 49.3834C113.176 48.8362 113.54 48.4714 114.088 48.4714C114.635 48.4714 115 48.8362 115 49.3834C114.908 54.4905 106.245 58.412 95.2098 58.412Z" fill="#466D1A"/>
<path d="M95.2098 63.7926C84.1749 63.7926 75.4199 59.8711 75.4199 54.764C75.4199 54.2168 75.7847 53.8521 76.3319 53.8521C76.8791 53.8521 77.2439 54.2168 77.2439 54.764C77.2439 58.2295 84.4485 61.9686 95.2098 61.9686C105.971 61.9686 113.176 58.2295 113.176 54.764C113.176 54.2168 113.54 53.8521 114.088 53.8521C114.635 53.8521 115 54.2168 115 54.764C114.908 59.8711 106.245 63.7926 95.2098 63.7926Z" fill="#466D1A"/>
<path d="M95.2098 69.1732C84.1749 69.1732 75.4199 65.2517 75.4199 60.1446C75.4199 59.5975 75.7847 59.2327 76.3319 59.2327C76.8791 59.2327 77.2439 59.5975 77.2439 60.1446C77.2439 63.6101 84.4485 67.3492 95.2098 67.3492C105.971 67.3492 113.176 63.6101 113.176 60.1446C113.176 59.5975 113.54 59.2327 114.088 59.2327C114.635 59.2327 115 59.5975 115 60.1446C114.908 65.2517 106.245 69.1732 95.2098 69.1732Z" fill="#466D1A"/>
<path d="M95.2098 74.5538C84.1749 74.5538 75.4199 70.6323 75.4199 65.5253C75.4199 64.9781 75.7847 64.6133 76.3319 64.6133C76.8791 64.6133 77.2439 64.9781 77.2439 65.5253C77.2439 68.9908 84.4485 72.7299 95.2098 72.7299C105.971 72.7299 113.176 68.9908 113.176 65.5253C113.176 64.9781 113.54 64.6133 114.088 64.6133C114.635 64.6133 115 64.9781 115 65.5253C114.908 70.6323 106.245 74.5538 95.2098 74.5538Z" fill="#466D1A"/>
<path d="M95.2098 79.9347C84.1749 79.9347 75.4199 76.0132 75.4199 70.9061C75.4199 70.3589 75.7847 69.9941 76.3319 69.9941C76.8791 69.9941 77.2439 70.3589 77.2439 70.9061C77.2439 74.3716 84.4485 78.1107 95.2098 78.1107C105.971 78.1107 113.176 74.3716 113.176 70.9061C113.176 70.3589 113.54 69.9941 114.088 69.9941C114.635 69.9941 115 70.3589 115 70.9061C114.908 76.0132 106.245 79.9347 95.2098 79.9347Z" fill="#466D1A"/>
<path d="M95.2098 85.4063C84.1749 85.4063 75.4199 81.4849 75.4199 76.3778C75.4199 75.8306 75.7847 75.4658 76.3319 75.4658C76.8791 75.4658 77.2439 75.8306 77.2439 76.3778C77.2439 79.8433 84.4485 83.5824 95.2098 83.5824C105.971 83.5824 113.176 79.8433 113.176 76.3778C113.176 75.8306 113.54 75.4658 114.088 75.4658C114.635 75.4658 115 75.8306 115 76.3778C114.908 81.3937 106.245 85.4063 95.2098 85.4063Z" fill="#466D1A"/>
<path d="M95.2098 90.7872C84.1749 90.7872 75.4199 86.8657 75.4199 81.7587C75.4199 81.2115 75.7847 80.8467 76.3319 80.8467C76.8791 80.8467 77.2439 81.2115 77.2439 81.7587C77.2439 85.2242 84.4485 88.9633 95.2098 88.9633C105.971 88.9633 113.176 85.2242 113.176 81.7587C113.176 81.2115 113.54 80.8467 114.088 80.8467C114.635 80.8467 115 81.2115 115 81.7587C114.908 86.7745 106.245 90.7872 95.2098 90.7872Z" fill="#466D1A"/>
<path d="M95.2098 96.1678C84.1749 96.1678 75.4199 92.2463 75.4199 87.1393C75.4199 86.5921 75.7847 86.2273 76.3319 86.2273C76.8791 86.2273 77.2439 86.5921 77.2439 87.1393C77.2439 90.6048 84.4485 94.3439 95.2098 94.3439C105.971 94.3439 113.176 90.6048 113.176 87.1393C113.176 86.5921 113.54 86.2273 114.088 86.2273C114.635 86.2273 115 86.5921 115 87.1393C114.908 92.1551 106.245 96.1678 95.2098 96.1678Z" fill="#466D1A"/>
<path d="M95.2098 101.548C84.1749 101.548 75.4199 97.6269 75.4199 92.5199C75.4199 91.9727 75.7847 91.6079 76.3319 91.6079C76.8791 91.6079 77.2439 91.9727 77.2439 92.5199C77.2439 95.9854 84.4485 99.7245 95.2098 99.7245C105.971 99.7245 113.176 95.9854 113.176 92.5199C113.176 91.9727 113.54 91.6079 114.088 91.6079C114.635 91.6079 115 91.9727 115 92.5199C114.908 97.5357 106.245 101.548 95.2098 101.548Z" fill="#466D1A"/>
<path d="M95.2098 106.929C84.1749 106.929 75.4199 103.008 75.4199 97.9005C75.4199 97.3533 75.7847 96.9885 76.3319 96.9885C76.8791 96.9885 77.2439 97.3533 77.2439 97.9005C77.2439 101.366 84.4485 105.105 95.2098 105.105C105.971 105.105 113.176 101.366 113.176 97.9005C113.176 97.3533 113.54 96.9885 114.088 96.9885C114.635 96.9885 115 97.3533 115 97.9005C114.908 102.916 106.245 106.929 95.2098 106.929Z" fill="#466D1A"/>
<path d="M95.2098 112.31C84.1749 112.31 75.4199 108.388 75.4199 103.281C75.4199 102.734 75.7847 102.369 76.3319 102.369C76.8791 102.369 77.2439 102.734 77.2439 103.281C77.2439 106.747 84.4485 110.486 95.2098 110.486C105.971 110.486 113.176 106.747 113.176 103.281C113.176 102.734 113.54 102.369 114.088 102.369C114.635 102.369 115 102.734 115 103.281C114.908 108.297 106.245 112.31 95.2098 112.31Z" fill="#466D1A"/>
<path d="M95.2098 20.7475C84.1749 20.7475 75.4199 16.826 75.4199 11.719C75.4199 6.61192 84.0837 2.69043 95.2098 2.69043C106.245 2.69043 115 6.61192 115 11.719C115 16.826 106.245 20.7475 95.2098 20.7475ZM95.2098 4.51438C84.4485 4.51438 77.2439 8.25348 77.2439 11.719C77.2439 15.1845 84.4485 18.9236 95.2098 18.9236C105.971 18.9236 113.176 15.1845 113.176 11.719C113.176 8.25348 105.971 4.51438 95.2098 4.51438Z" fill="#466D1A"/>
<path d="M67.6682 40.446H43.9569C43.4097 40.446 43.0449 40.0812 43.0449 39.534C43.0449 38.9869 43.4097 38.6221 43.9569 38.6221H67.6682C68.2154 38.6221 68.5802 38.9869 68.5802 39.534C68.5802 40.0812 68.2154 40.446 67.6682 40.446Z" fill="#466D1A"/>
<path d="M62.8358 46.7388C62.5622 46.7388 62.3798 46.6476 62.1974 46.4652C61.8326 46.1004 61.8326 45.5532 62.1974 45.1884L67.8517 39.5342L62.1974 33.8799C61.8326 33.5152 61.8326 32.968 62.1974 32.6032C62.5622 32.2384 63.1094 32.2384 63.4742 32.6032L69.7668 38.8958C70.1316 39.2606 70.1316 39.8078 69.7668 40.1726L63.4742 46.4652C63.2918 46.6476 63.1094 46.7388 62.8358 46.7388Z" fill="#466D1A"/>
<path d="M70.2228 78.2019H45.5995C45.0523 78.2019 44.6875 77.8371 44.6875 77.2899C44.6875 76.7427 45.0523 76.3779 45.5995 76.3779H70.2228C70.77 76.3779 71.1348 76.7427 71.1348 77.2899C71.1348 77.8371 70.77 78.2019 70.2228 78.2019Z" fill="#466D1A"/>
<path d="M51.2534 84.4944C50.9798 84.4944 50.7974 84.4032 50.615 84.2208L44.3224 77.9282C44.14 77.7458 44.0488 77.5634 44.0488 77.2898C44.0488 77.0162 44.14 76.8338 44.3224 76.6514L50.615 70.3588C50.9798 69.994 51.527 69.994 51.8918 70.3588C52.2566 70.7236 52.2566 71.2708 51.8918 71.6356L46.2376 77.2898L51.8918 82.944C52.2566 83.3088 52.2566 83.856 51.8918 84.2208C51.7094 84.4032 51.4358 84.4944 51.2534 84.4944Z" fill="#466D1A"/>
</g>
<defs>
<clipPath id="clip0_699_176">
<rect width="115" height="115" fill="white"/>
</clipPath>
</defs>
</svg>
