<svg width="85" height="110" viewBox="0 0 85 110" fill="none" xmlns="http://www.w3.org/2000/svg">
<path d="M30.3571 17.1875C30.3571 11.4941 34.4364 6.875 39.4643 6.875H45.5357C50.5636 6.875 54.6429 11.4941 54.6429 17.1875V92.8125C54.6429 98.5059 50.5636 103.125 45.5357 103.125H39.4643C34.4364 103.125 30.3571 98.5059 30.3571 92.8125V17.1875ZM0 58.4375C0 52.7441 4.07924 48.125 9.10714 48.125H15.1786C20.2065 48.125 24.2857 52.7441 24.2857 58.4375V92.8125C24.2857 98.5059 20.2065 103.125 15.1786 103.125H9.10714C4.07924 103.125 0 98.5059 0 92.8125V58.4375ZM69.8214 20.625H75.8929C80.9208 20.625 85 25.2441 85 30.9375V92.8125C85 98.5059 80.9208 103.125 75.8929 103.125H69.8214C64.7935 103.125 60.7143 98.5059 60.7143 92.8125V30.9375C60.7143 25.2441 64.7935 20.625 69.8214 20.625Z" fill="#60A018"/>
</svg>
