<svg width="120" height="97" viewBox="0 0 120 97" fill="none" xmlns="http://www.w3.org/2000/svg">
<path d="M0 63.6562C0 78.7178 12.0938 90.9375 27 90.9375H96C109.256 90.9375 120 80.0818 120 66.6875C120 54.9604 111.75 45.1656 100.8 42.9301C101.569 40.9029 102 38.6863 102 36.375C102 26.334 93.9375 18.1875 84 18.1875C80.3062 18.1875 76.8563 19.3242 74.0063 21.2566C68.8125 12.1629 59.1187 6.0625 48 6.0625C31.425 6.0625 18 19.6273 18 36.375C18 36.8865 18.0187 37.398 18.0375 37.9096C7.5375 41.6418 0 51.7586 0 63.6562Z" fill="#60A018"/>
</svg>
