<svg width="115" height="115" viewBox="0 0 115 115" fill="none" xmlns="http://www.w3.org/2000/svg">
<path d="M62.2917 91.0454L85.2917 91.0416C90.6588 91.0416 93.3426 91.0416 95.3925 89.997C97.1956 89.0784 98.6618 87.6122 99.5804 85.8091C100.625 83.7592 100.625 81.0754 100.625 75.7083V39.2916C100.625 33.9244 100.625 31.2408 99.5804 29.1908C98.6618 27.3876 97.1956 25.9215 95.3925 25.0028C93.3426 23.9583 90.6588 23.9583 85.2917 23.9583H29.7083C24.3412 23.9583 21.6576 23.9583 19.6076 25.0028C17.8043 25.9215 16.3383 27.3876 15.4195 29.1908C14.375 31.2408 14.375 33.9244 14.375 39.2916V71.8749M14.375 43.1249H95.8333M43.125 91.0454L14.375 91.0416M43.125 91.0454L33.5417 81.4583M43.125 91.0454L33.5417 100.625" stroke="#60A018" stroke-width="8" stroke-linecap="round" stroke-linejoin="round"/>
</svg>
