<svg width="115" height="115" viewBox="0 0 115 115" fill="none" xmlns="http://www.w3.org/2000/svg">
<path d="M86.4746 53.5918C90.6425 53.5918 94.0215 56.9708 94.0215 61.1387C94.0215 65.3065 90.6425 68.6855 86.4746 68.6855C82.3068 68.6855 78.9277 65.3065 78.9277 61.1387C78.9277 56.9708 82.3068 53.5918 86.4746 53.5918ZM77.1758 72.3691C81.3436 72.3691 84.7227 75.7482 84.7227 79.916C84.7227 84.0839 81.3436 87.4629 77.1758 87.4629C73.0079 87.4629 69.6289 84.0839 69.6289 79.916C69.6289 75.7482 73.0079 72.3691 77.1758 72.3691ZM65.1367 88.8555H56.6465H48.1562C42.9902 88.8555 39.7559 93.123 39.7559 98.4687V111.631H45.5508V99.9961C45.5508 99.457 46 99.0977 46.4492 99.0977C46.9883 99.0977 47.3477 99.457 47.3477 99.9961V111.586H65.9902V99.9961C65.9902 99.457 66.4395 99.0977 66.8887 99.0977C67.4277 99.0977 67.7871 99.5469 67.7871 99.9961V111.586H73.582V98.5137C73.6719 93.123 70.3926 88.8555 65.1367 88.8555ZM67.248 53.5918C71.4159 53.5918 74.7949 56.9708 74.7949 61.1387C74.7949 65.3065 71.4159 68.6855 67.248 68.6855C63.0802 68.6855 59.7012 65.3065 59.7012 61.1387C59.7012 56.9708 63.0802 53.5918 67.248 53.5918ZM89.4395 79.916C89.4395 84.0937 92.8086 87.4629 96.9863 87.4629C101.164 87.4629 104.533 84.0937 104.533 79.916C104.533 75.7383 101.164 72.3691 96.9863 72.3691C92.8086 72.3691 89.4395 75.7383 89.4395 79.916ZM88.6758 88.8555C83.5098 88.8555 80.2754 93.123 80.2754 98.4687V111.631H86.0703V99.9961C86.0703 99.457 86.5195 99.0977 86.9688 99.0977C87.5078 99.0977 87.8672 99.457 87.8672 99.9961V111.586H106.51V99.9961C106.51 99.457 106.959 99.0977 107.408 99.0977C107.947 99.0977 108.307 99.5469 108.307 99.9961V111.586H114.102V98.5137C114.191 93.0781 110.912 88.8105 105.701 88.8105H97.2109H88.6758V88.8555ZM17.8789 72.3691C22.0468 72.3691 25.4258 75.7482 25.4258 79.916C25.4258 84.0839 22.0468 87.4629 17.8789 87.4629C13.7111 87.4629 10.332 84.0839 10.332 79.916C10.332 75.7482 13.7111 72.3691 17.8789 72.3691ZM6.64844 111.586V99.9961C6.64844 99.457 7.09766 99.0977 7.54688 99.0977C8.08594 99.0977 8.44531 99.457 8.44531 99.9961V111.586H27.0879V99.9961C27.0879 99.457 27.5371 99.0977 27.9863 99.0977C28.5254 99.0977 28.8848 99.5469 28.8848 99.9961V111.586H34.6797V98.5137C34.7695 93.0781 31.4902 88.8105 26.2793 88.8105H17.7891H9.29883C4.13281 88.8105 0.898438 93.0781 0.898438 98.4238V111.586H6.64844ZM49.0996 79.916C49.0996 84.0937 52.4687 87.4629 56.6465 87.4629C60.8242 87.4629 64.1934 84.0937 64.1934 79.916C64.1934 75.7383 60.8242 72.3691 56.6465 72.3691C52.4687 72.3691 49.0996 75.7383 49.0996 79.916ZM27.5371 53.5918C31.705 53.5918 35.084 56.9708 35.084 61.1387C35.084 65.3065 31.705 68.6855 27.5371 68.6855C23.3693 68.6855 19.9902 65.3065 19.9902 61.1387C19.9902 56.9708 23.3693 53.5918 27.5371 53.5918ZM47.9316 53.5918C52.0995 53.5918 55.4785 56.9708 55.4785 61.1387C55.4785 65.3065 52.0995 68.6855 47.9316 68.6855C43.7638 68.6855 40.3848 65.3065 40.3848 61.1387C40.3848 56.9708 43.7638 53.5918 47.9316 53.5918ZM37.7793 72.3691C41.9471 72.3691 45.3262 75.7482 45.3262 79.916C45.3262 84.0839 41.9471 87.4629 37.7793 87.4629C33.6114 87.4629 30.2324 84.0839 30.2324 79.916C30.2324 75.7482 33.6114 72.3691 37.7793 72.3691ZM57.4708 44.248C68.7183 44.248 77.9103 35.1168 77.9103 23.8086C77.9103 12.5004 68.779 3.36914 57.4708 3.36914C46.1626 3.36914 37.0915 12.5611 37.0915 23.8692C37.0915 35.1168 46.2228 44.248 57.4708 44.248ZM56.3419 25.5421C52.5927 24.2318 50.2546 22.337 50.2546 18.971C50.2546 15.8669 52.3106 13.4276 56.08 12.6617V9.29523H58.902V12.5004C61.2402 12.5004 62.9333 12.9842 64.183 13.6495L63.0339 17.6808C62.1067 17.2976 60.5951 16.653 58.5188 16.653C56.4425 16.653 55.3137 17.6808 55.3137 18.7091C55.3137 20.1201 56.624 20.6645 59.446 21.8132C63.2963 23.2242 65.09 25.1796 65.09 28.3843C65.09 31.5891 63.1346 34.0283 59.0026 34.9555V38.1607H56.1806V35.0566C53.7418 35.0566 51.2824 34.4115 50.0933 33.7462L51.1211 29.6138C52.4315 30.2589 54.4875 31.0248 56.6645 31.0248C59.0026 31.0248 60.1517 29.997 60.1517 28.586C60.1517 27.175 59.0431 26.5902 56.3419 25.5421Z" fill="#60A018"/>
</svg>
