<svg width="115" height="115" viewBox="0 0 115 115" fill="none" xmlns="http://www.w3.org/2000/svg">
<path d="M80.5 100.625C82.0878 100.625 83.375 99.8205 83.375 98.8281C83.375 97.8357 82.0878 97.0312 80.5 97.0312C78.9122 97.0312 77.625 97.8357 77.625 98.8281C77.625 99.8205 78.9122 100.625 80.5 100.625Z" fill="#60A018"/>
<path d="M34.5 100.625C36.0878 100.625 37.375 99.8205 37.375 98.8281C37.375 97.8357 36.0878 97.0312 34.5 97.0312C32.9122 97.0312 31.625 97.8357 31.625 98.8281C31.625 99.8205 32.9122 100.625 34.5 100.625Z" fill="#60A018"/>
<path d="M57.5 100.625C59.0878 100.625 60.375 99.8205 60.375 98.8281C60.375 97.8357 59.0878 97.0312 57.5 97.0312C55.9122 97.0312 54.625 97.8357 54.625 98.8281C54.625 99.8205 55.9122 100.625 57.5 100.625Z" fill="#60A018"/>
<path d="M0 107.812C0 111.785 5.14338 115 11.5 115H103.5C109.857 115 115 111.785 115 107.812V68.2812H0V107.812ZM80.5 93.4375C85.2639 93.4375 89.125 95.8525 89.125 98.8281C89.125 101.804 85.2639 104.219 80.5 104.219C75.7361 104.219 71.875 101.804 71.875 98.8281C71.875 95.8525 75.7361 93.4375 80.5 93.4375ZM57.5 93.4375C62.2639 93.4375 66.125 95.8525 66.125 98.8281C66.125 101.804 62.2639 104.219 57.5 104.219C52.7361 104.219 48.875 101.804 48.875 98.8281C48.875 95.8525 52.7361 93.4375 57.5 93.4375ZM34.5 93.4375C39.2639 93.4375 43.125 95.8525 43.125 98.8281C43.125 101.804 39.2639 104.219 34.5 104.219C29.7361 104.219 25.875 101.804 25.875 98.8281C25.875 95.8525 29.7361 93.4375 34.5 93.4375Z" fill="#60A018"/>
<path d="M0 43.125H115V25.1562H0V43.125ZM25.875 32.3438H89.125C90.7149 32.3438 92 33.147 92 34.1406C92 35.1343 90.7149 35.9375 89.125 35.9375H25.875C24.2851 35.9375 23 35.1343 23 34.1406C23 33.147 24.2851 32.3438 25.875 32.3438Z" fill="#60A018"/>
<path d="M0 64.6875H115V46.7188H0V64.6875ZM25.875 53.9062H89.125C90.7149 53.9062 92 54.7095 92 55.7031C92 56.6968 90.7149 57.5 89.125 57.5H25.875C24.2851 57.5 23 56.6968 23 55.7031C23 54.7095 24.2851 53.9062 25.875 53.9062Z" fill="#60A018"/>
<path d="M103.5 0H11.5C5.14338 0 0 3.21461 0 7.1875V21.5625H115V7.1875C115 3.21461 109.857 0 103.5 0ZM89.125 14.375H25.875C24.2851 14.375 23 13.5718 23 12.5781C23 11.5845 24.2851 10.7812 25.875 10.7812H89.125C90.7149 10.7812 92 11.5845 92 12.5781C92 13.5718 90.7149 14.375 89.125 14.375Z" fill="#60A018"/>
</svg>
