<svg width="115" height="115" viewBox="0 0 115 115" fill="none" xmlns="http://www.w3.org/2000/svg">
<g clip-path="url(#clip0_699_233)">
<path d="M15.0001 0H0V7.49993H15.0001V0Z" fill="#60A018"/>
<path d="M57.5 107.5H45V115H57.5V107.5Z" fill="#60A018"/>
<path d="M100 107.5H87.5V115H100V107.5Z" fill="#60A018"/>
<path d="M107.5 95H100V107.5H107.5V95Z" fill="#60A018"/>
<path d="M87.4998 87.5H57.4999H44.9999H37.5V107.5H44.9999V95.0002H57.4999V107.5H64.9998V95.0002H79.9999V107.5H87.4998V95.0002H99.9998V87.5H87.4998Z" fill="#60A018"/>
<path d="M22.4999 20.0002V7.5H15V27.5001H22.4999V50.0001H29.9999V87.5H37.4998V80.0001H99.9998V72.5002H107.5V50.0001H115V20.0002H22.4999ZM85 52.5H72.5V65H65.0001V52.5H52.5001V45.0001H65.0001V32.5001H72.5V45.0001H85V52.5Z" fill="#60A018"/>
</g>
<defs>
<clipPath id="clip0_699_233">
<rect width="115" height="115" fill="white"/>
</clipPath>
</defs>
</svg>
