<svg width="115" height="115" viewBox="0 0 115 115" fill="none" xmlns="http://www.w3.org/2000/svg">
<path d="M19.0177 54.8988H24.9419C23.9627 55.8615 23.0296 56.9428 22.1753 58.1758C18.5906 63.3498 16.6191 70.2501 16.6191 77.6057C16.6191 92.7389 25.1521 105.055 35.6369 105.055H43.4503V112.581C43.4503 113.653 43.9497 114.592 44.6693 114.872C45.3856 115.157 46.1446 114.696 46.5191 113.767L52.7423 98.2069L58.9654 113.81C59.2644 114.559 59.8131 115 60.3914 115C60.5327 115 60.674 114.976 60.8153 114.919C61.5349 114.644 62.0343 113.705 62.0343 112.629V105.055H113.357C114.264 105.055 115 103.993 115 102.684V95.0532C115 94.56 114.872 94.1284 114.694 93.7538C114.675 93.7111 114.681 93.6542 114.662 93.6115C112.214 88.9971 110.919 83.4626 110.919 77.6057C110.919 71.7487 112.214 66.2143 114.662 61.5999C114.685 61.5572 114.675 61.5003 114.694 61.4576C114.872 61.0782 115 60.6466 115 60.1582V52.5275C115 51.2186 114.264 50.1563 113.357 50.1563H98.3809V44.8969C98.3809 44.8495 98.3644 44.8068 98.3611 44.7594C98.3579 44.6598 98.3349 44.5792 98.3217 44.4843C98.2823 44.1666 98.2034 43.8868 98.0884 43.6259C98.0654 43.5738 98.0687 43.5074 98.0424 43.4552C95.5946 38.8408 94.3 33.3063 94.3 27.4494C94.3 21.5924 95.5946 16.058 98.0424 11.4436C98.0687 11.3914 98.0654 11.325 98.0884 11.2728C98.2067 11.012 98.2823 10.7322 98.3217 10.4144C98.3349 10.3196 98.3579 10.2342 98.3611 10.1394C98.3644 10.092 98.3809 10.0493 98.3809 10.0019V2.37123C98.3809 1.06231 97.6449 0 96.738 0H19.0177C13.9216 0 9.14086 2.85022 5.55614 8.01951C1.97143 13.1888 0 20.0891 0 27.4494C0 42.5826 8.533 54.8988 19.0177 54.8988ZM62.0277 79.9769H107.758C107.992 84.4822 108.866 88.7789 110.37 92.682H62.0277V79.9769ZM107.762 75.2344H60.3849H45.0931H33.3697C32.4629 75.2344 31.7269 76.2967 31.7269 77.6057C31.7269 78.9146 32.4629 79.9769 33.3697 79.9769H43.4503V92.682H36.2086C30.4487 92.682 25.7633 85.9192 25.7633 77.6057C25.7633 73.5698 26.8476 69.7853 28.8091 66.9494C30.8101 64.0991 33.4387 62.5294 36.2053 62.5294H110.367C108.866 66.4324 107.995 70.7244 107.762 75.2344ZM58.742 103.741L54.1584 92.2883C53.8627 91.558 53.3239 91.1075 52.739 91.1075C52.1541 91.1075 51.6153 91.5533 51.3196 92.2836L46.7327 103.732V102.684V95.0532V79.9769H58.7387V95.0532V102.684L58.742 103.741ZM62.0277 100.313V97.4244H111.714V100.313H62.0277ZM111.714 57.7869H36.2119C32.5746 57.7869 29.1279 59.8404 26.4993 63.587C23.9069 67.3288 22.4809 72.3036 22.4809 77.6057C22.4809 88.5323 28.6416 97.4244 36.2119 97.4244H43.4536V100.313H35.6401C26.9659 100.313 19.9081 90.1258 19.9081 77.6057C19.9081 71.5163 21.5411 65.8112 24.5016 61.5287C27.4653 57.251 31.418 54.8988 35.6401 54.8988H96.7413H111.714V57.7869ZM91.1161 25.0781H16.7506C15.8437 25.0781 15.1077 26.1405 15.1077 27.4494C15.1077 28.7583 15.8437 29.8206 16.7506 29.8206H91.1161C91.3494 34.3212 92.1971 38.6274 93.6987 42.5257H19.5927C13.8329 42.5257 9.14743 35.7629 9.14743 27.4494C9.14743 23.4135 10.2317 19.6291 12.1933 16.7931C14.1943 13.9428 16.8229 12.3731 19.5894 12.3731H93.6954C92.1971 16.2666 91.3494 20.5775 91.1161 25.0781ZM7.87914 11.3724C10.8429 7.09472 14.7956 4.74246 19.0177 4.74246H95.0952V7.63062H19.5927C15.9554 7.63062 12.5087 9.68411 9.88014 13.4307C7.28771 17.1725 5.86172 22.1473 5.86172 27.4494C5.86172 38.376 12.0224 47.2681 19.5927 47.2681H95.0952V50.1563H35.6369H19.0177C10.3434 50.1563 3.28571 39.9695 3.28571 27.4494C3.28571 21.3553 4.91871 15.6501 7.87914 11.3724Z" fill="#60A018"/>
</svg>
