<svg width="115" height="115" viewBox="0 0 115 115" fill="none" xmlns="http://www.w3.org/2000/svg">
<path d="M19.7656 41.3281V50.3125H23.3594V43.125H55.7031V50.3125H59.2969V43.125H91.6406V50.3125H95.2344V41.3281C95.2344 41.0921 95.188 40.8585 95.0977 40.6404C95.0074 40.4224 94.8751 40.2243 94.7082 40.0574C94.5414 39.8905 94.3432 39.7582 94.1252 39.6679C93.9072 39.5776 93.6735 39.5312 93.4375 39.5312H59.2969V34.1406H55.7031V39.5312H21.5625C21.3265 39.5312 21.0928 39.5776 20.8748 39.6679C20.6568 39.7582 20.4586 39.8905 20.2918 40.0574C20.1249 40.2243 19.9926 40.4224 19.9023 40.6404C19.812 40.8585 19.7656 41.0921 19.7656 41.3281Z" fill="#60A018"/>
<path d="M57.5 73.6719C62.4619 73.6719 66.4844 69.6494 66.4844 64.6875C66.4844 59.7256 62.4619 55.7031 57.5 55.7031C52.5381 55.7031 48.5156 59.7256 48.5156 64.6875C48.5156 69.6494 52.5381 73.6719 57.5 73.6719Z" fill="#60A018"/>
<path d="M93.4375 73.6719C98.3994 73.6719 102.422 69.6494 102.422 64.6875C102.422 59.7256 98.3994 55.7031 93.4375 55.7031C88.4756 55.7031 84.4531 59.7256 84.4531 64.6875C84.4531 69.6494 88.4756 73.6719 93.4375 73.6719Z" fill="#60A018"/>
<path d="M21.5625 73.6719C26.5244 73.6719 30.5469 69.6494 30.5469 64.6875C30.5469 59.7256 26.5244 55.7031 21.5625 55.7031C16.6006 55.7031 12.5781 59.7256 12.5781 64.6875C12.5781 69.6494 16.6006 73.6719 21.5625 73.6719Z" fill="#60A018"/>
<path d="M17.9688 97.0312H3.59375V111.406H17.9688V97.0312Z" fill="#60A018"/>
<path d="M39.5312 97.0312H25.1562V111.406H39.5312V97.0312Z" fill="#60A018"/>
<path d="M89.8438 97.0312H75.4688V111.406H89.8438V97.0312Z" fill="#60A018"/>
<path d="M111.406 97.0312H97.0312V111.406H111.406V97.0312Z" fill="#60A018"/>
<path d="M64.6875 97.0312H50.3125V111.406H64.6875V97.0312Z" fill="#60A018"/>
<path d="M59.2969 79.0625H55.7031V93.4375H59.2969V79.0625Z" fill="#60A018"/>
<path d="M12.5781 89.8438H30.5469V93.4375H34.1406V88.0469C34.1407 87.8109 34.0942 87.5772 34.004 87.3592C33.9137 87.1411 33.7813 86.943 33.6145 86.7762C33.4476 86.6093 33.2495 86.4769 33.0315 86.3867C32.8134 86.2964 32.5797 86.2499 32.3438 86.25H23.3594V79.0625H19.7656V86.25H10.7812C10.5453 86.2499 10.3116 86.2964 10.0935 86.3867C9.87551 86.4769 9.6774 86.6093 9.51053 86.7762C9.34366 86.943 9.21131 87.1411 9.12103 87.3592C9.03075 87.5772 8.98431 87.8109 8.98438 88.0469V93.4375H12.5781V89.8438Z" fill="#60A018"/>
<path d="M106.016 93.4375V88.0469C106.016 87.8109 105.969 87.5772 105.879 87.3592C105.789 87.1411 105.656 86.943 105.489 86.7762C105.323 86.6093 105.124 86.4769 104.906 86.3867C104.688 86.2964 104.455 86.2499 104.219 86.25H95.2344V79.0625H91.6406V86.25H82.6562C82.4203 86.2499 82.1866 86.2964 81.9685 86.3867C81.7505 86.4769 81.5524 86.6093 81.3855 86.7762C81.2187 86.943 81.0863 87.1411 80.996 87.3592C80.9057 87.5772 80.8593 87.8109 80.8594 88.0469V93.4375H84.4531V89.8438H102.422V93.4375H106.016Z" fill="#60A018"/>
<path d="M60.8943 14.5745L57.5 3.59375L54.1057 14.5745H43.125L52.0088 21.363L48.6162 32.3438L57.5 25.557L66.3838 32.3438L62.9912 21.363L71.875 14.5745H60.8943Z" fill="#60A018"/>
</svg>
