<svg width="115" height="115" viewBox="0 0 115 115" fill="none" xmlns="http://www.w3.org/2000/svg">
<path d="M9.63707 47.9166C9.42758 43.726 9.81647 40.601 11.191 37.7341C13.7807 32.3322 19.2928 29.0486 30.3171 22.4815L36.9528 18.5287C46.964 12.5651 51.9696 9.58325 57.5006 9.58325C63.0317 9.58325 68.0375 12.5651 78.0483 18.5287L84.6842 22.4815C95.7084 29.0486 101.221 32.3322 103.81 37.7341C106.4 43.1359 105.491 49.4538 103.673 62.0899L102.337 71.3727C100.001 87.6045 98.8336 95.7202 93.2033 100.568C88.082 104.978 80.7877 105.377 67.084 105.413" stroke="#60A018" stroke-width="8" stroke-linecap="round"/>
<path d="M52.709 105.417C52.709 81.5993 33.4013 62.2917 9.58398 62.2917" stroke="#60A018" stroke-width="8" stroke-linecap="round"/>
<path d="M38.334 105.417C38.334 89.5386 25.4622 76.6667 9.58398 76.6667" stroke="#60A018" stroke-width="8" stroke-linecap="round"/>
<path d="M23.959 105.417C23.959 97.4774 17.5231 91.0417 9.58398 91.0417" stroke="#60A018" stroke-width="8" stroke-linecap="round"/>
</svg>
