<svg width="99" height="115" viewBox="0 0 99 115" fill="none" xmlns="http://www.w3.org/2000/svg">
<path d="M42.0788 42.9322C46.8516 42.9322 50.7161 39.0679 50.7161 34.2948C50.7161 29.5219 46.8517 25.6575 42.0788 25.6575C37.3058 25.6575 33.4414 29.5219 33.4414 34.2948C33.4414 39.055 37.3058 42.9322 42.0788 42.9322Z" fill="#60A018"/>
<path d="M14.2092 100.233V111.801C14.2092 113.567 15.6424 115 17.4082 115H62.4121C64.178 115 65.6111 113.567 65.6111 111.801V100.528H78.1769C83.2058 100.528 87.3132 96.4199 87.3132 91.3912V75.3961L94.671 75.2553C97.5885 75.2041 99.4311 72.0817 98.0619 69.5098L90.026 54.3593C88.2345 50.9812 87.3004 47.219 87.3004 43.4058C87.3004 19.3107 67.6712 -0.190537 43.5248 0.00140483C19.4555 0.193346 0.235718 19.7843 0.478844 43.8537C0.555621 50.7891 2.2575 57.3407 5.2134 63.1246C11.1125 74.6283 14.2092 87.3348 14.2092 100.233ZM19.0845 32.7979C19.0845 31.979 19.5708 31.2495 20.3257 30.9296L25.0603 28.9078C25.5593 28.6903 25.956 28.2808 26.1609 27.7817C26.1863 27.7178 26.2119 27.6666 26.2249 27.6026C26.4296 27.1037 26.4296 26.5533 26.2249 26.0543L24.2799 21.3325C23.9727 20.5777 24.139 19.6946 24.7277 19.1188L26.8901 16.9562C27.466 16.3804 28.3362 16.2014 29.0911 16.5084L33.8896 18.4407C34.3759 18.6327 34.9262 18.6327 35.4251 18.4407C35.4635 18.4278 35.5147 18.4023 35.5531 18.3895C36.0649 18.1848 36.4744 17.7881 36.6919 17.2763L38.6753 12.5289C38.9952 11.7739 39.7374 11.2749 40.5564 11.2749H43.6145C44.4335 11.2749 45.163 11.7612 45.4829 12.5161L47.5302 17.3147C47.7477 17.8136 48.1445 18.1975 48.6434 18.4023C48.669 18.4151 48.6946 18.4278 48.7203 18.4278C49.2192 18.6327 49.7824 18.6453 50.2814 18.4278L55.067 16.4573C55.822 16.1502 56.7049 16.3164 57.2807 16.9052L59.4433 19.0676C60.0191 19.6434 60.1983 20.5137 59.8912 21.2685L57.9461 26.131C57.7542 26.6301 57.7542 27.1803 57.9591 27.6666C57.9591 27.6795 57.9719 27.6922 57.9719 27.705C58.1766 28.2168 58.5733 28.6263 59.0851 28.8438L63.8965 30.8528C64.6514 31.1727 65.1505 31.9149 65.1505 32.7338V35.792C65.1505 36.6109 64.6642 37.3404 63.9094 37.6603L59.0723 39.7205C58.5734 39.938 58.1766 40.3347 57.9719 40.8466L57.9463 40.9105C57.7543 41.3968 57.7543 41.9472 57.9592 42.4333L59.9554 47.2446C60.2753 47.9996 60.0962 48.8825 59.5075 49.4583L57.345 51.6209C56.7692 52.1967 55.899 52.3757 55.1442 52.0688L50.2817 50.1237C49.7953 49.9318 49.2451 49.9318 48.7461 50.1365C48.7205 50.1495 48.6822 50.1621 48.6566 50.1751C48.1575 50.3798 47.7608 50.7763 47.5433 51.2755L45.5727 56.0741C45.2528 56.829 44.5106 57.3281 43.6918 57.3281H40.6335C39.8146 57.3281 39.0852 56.8418 38.7653 56.0869L36.7307 51.3268C36.5132 50.815 36.0909 50.4182 35.5791 50.2262C35.5407 50.2134 35.4895 50.1879 35.4511 50.1752C34.9521 49.9832 34.4018 49.9832 33.9156 50.1752L29.1682 52.133C28.4133 52.44 27.5302 52.2737 26.9544 51.6851L24.792 49.5226C24.2161 48.9468 24.037 48.0766 24.3441 47.3217L26.2635 42.5487C26.4682 42.0498 26.4554 41.4996 26.2506 41.0004C26.2251 40.9364 26.1995 40.8852 26.1738 40.8212C25.9691 40.3094 25.5724 39.9 25.0605 39.6952L20.3516 37.7374C19.5966 37.4175 19.0976 36.6753 19.0976 35.8563V32.7982H19.0845V32.7979Z" fill="#60A018"/>
</svg>
