<svg width="115" height="115" viewBox="0 0 115 115" fill="none" xmlns="http://www.w3.org/2000/svg">
<g clip-path="url(#clip0_699_164)">
<path d="M27.7192 16.3589C29.7784 15.1621 31.9131 14.0912 34.1412 13.1568C38.8383 11.1551 43.6862 10.0123 48.6852 9.50558L54.0758 15.6114L51.5709 21.9184C46.6834 22.8564 42.0798 24.6532 37.7745 27.2551L36.8402 27.8157L35.9956 19.5034L27.7192 16.3409V16.3589ZM25.3833 17.8395L33.9544 21.1493L34.8492 29.3467C30.2097 32.7535 26.58 37.1128 23.9961 42.4279C23.7517 42.8987 23.5253 43.3659 23.3205 43.851L17.2937 36.5342L7.45047 38.615C9.89781 33.3142 13.2148 28.5992 17.3297 24.4268C19.8022 21.9364 22.4616 19.7442 25.3222 17.8395H25.3833ZM81.8339 75.5982C82.7683 74.0457 83.5194 72.4753 84.1375 70.8437L93.4202 82.1137L109.013 78.7464C108.111 81.2153 107.069 83.6087 105.851 85.9662C102.631 92.1618 98.4011 97.5201 93.1578 102.066C87.8247 106.691 81.798 110.059 75.0777 112.172C74.9483 112.211 74.8153 112.247 74.6859 112.287L63.1392 102.515L66.1544 89.2221L66.3952 89.1323C73.0041 86.2465 78.1683 81.7903 81.8375 75.5443L81.8339 75.5982ZM101.355 23.0253C102.315 24.3334 103.192 25.699 104.054 27.1221C107.608 33.0914 110.063 39.4954 111.428 46.3092C112.737 53.0654 112.941 59.8612 112.007 66.675C111.504 69.9525 110.789 73.1545 109.779 76.2775L94.1856 79.6268L84.8455 68.3245C85.9344 64.1701 86.0637 59.8432 85.1294 55.3546C84.0405 50.0215 81.683 45.4503 78.1611 41.6876L94.9691 39.6859L101.24 23.0289L101.355 23.0253ZM6.42266 41.1414L16.4744 39.0103L22.4077 46.2301C20.5138 51.4339 20.1041 56.8245 21.042 62.42C21.2469 64.03 21.6027 65.5681 22.0339 67.0631L11.4 64.6481L3.78125 73.672C2.86484 69.665 2.43359 65.5896 2.43359 61.4281C2.43359 54.467 3.72375 47.7682 6.28609 41.3067L6.36156 41.1198L6.42266 41.1414ZM22.9108 69.5751C24.4309 73.6145 26.6734 77.3053 29.6527 80.6726C31.8772 83.235 34.4072 85.3337 37.1564 86.9796L26.6016 93.0279L27.1802 106.745C23.6978 104.593 20.4958 102.012 17.5956 99.0546C12.7081 94.0198 8.96703 88.2914 6.38312 81.8154C5.67516 80.0185 5.08938 78.2217 4.58625 76.4248L12.4314 67.214L23.0581 69.6685L22.9108 69.5751ZM39.4348 88.2339C41.7025 89.3731 44.1355 90.2356 46.7194 90.8178C52.5017 92.1654 58.1583 91.9426 63.6208 90.1421L60.6272 103.356L72.0661 113.034C66.3592 114.529 60.5194 115.165 54.5466 114.961C47.5639 114.734 40.8616 113.261 34.4611 110.522C32.7397 109.793 31.0938 108.988 29.4838 108.093L28.9052 94.2785L39.4348 88.2339ZM99.7452 20.905L93.4597 37.6231L76.127 39.6967C75.6203 39.2654 75.1172 38.8342 74.5709 38.4784C68.882 34.1551 62.4816 31.6467 55.3911 30.9171C53.7236 30.7878 52.1531 30.7878 50.633 30.7878L56.6813 15.3239L43.618 0.445736C47.5675 0.0144856 51.4559 -0.0430145 55.3911 0.0144855C57.7486 0.0899543 60.0666 0.258861 62.3917 0.557142C65.6441 0.988392 68.8461 1.69636 72.0266 2.58042C78.7684 4.4923 84.9066 7.52183 90.4445 11.8271C93.9412 14.5009 97.0319 17.5376 99.7452 20.905Z" fill="#60A018"/>
</g>
<defs>
<clipPath id="clip0_699_164">
<rect width="115" height="115" fill="white"/>
</clipPath>
</defs>
</svg>
