<svg width="115" height="115" viewBox="0 0 115 115" fill="none" xmlns="http://www.w3.org/2000/svg">
<path d="M75.9563 2.60181C73.2003 2.60181 70.9036 3.0181 68.1476 3.43439C63.0949 -1.1448 53.9081 -1.1448 48.8554 3.43439C45.1807 6.76471 42.4247 16.3394 41.506 21.3348C38.2907 23 33.6973 23 30.9413 20.086C29.1039 18.4208 26.3479 18.4208 24.5106 20.086C22.6732 21.7511 22.6732 24.2489 24.5106 25.914C27.7259 29.6606 32.3193 30.9095 36.9127 30.9095C40.5874 30.9095 44.2621 29.6606 47.4774 27.5792C52.9895 26.7466 64.4729 24.2489 68.6069 20.9186C71.363 18.4208 72.741 14.6742 72.741 10.9276C73.6596 10.9276 74.5783 10.9276 75.9563 10.9276C92.4925 10.9276 105.813 23 105.813 37.9864C105.813 52.9729 92.4925 65.0453 75.9563 65.0453H61.2575L90.1958 47.5611C92.0331 46.7285 92.4925 44.6471 92.0331 42.9819C91.5738 41.3167 89.7364 40.0679 87.4398 40.0679H4.75905C2.9217 40.0679 1.08435 41.3167 0.165674 42.9819C-0.293664 44.6471 0.165674 46.7285 2.00302 47.5611L31.4006 65.0453C24.0512 66.7104 18.5392 72.5385 18.5392 79.6154C18.5392 87.5249 25.8886 94.1855 34.616 94.1855H41.506V106.674H32.3193C29.5633 106.674 27.7259 108.339 27.7259 110.837C27.7259 113.335 29.5633 115 32.3193 115H52.9895C61.7169 115 69.0663 108.339 69.0663 100.43C69.0663 92.5204 61.7169 85.8597 52.9895 85.8597H50.6928V73.371H75.9563C97.5452 73.371 115 57.552 115 37.9864C115 18.4208 97.5452 2.60181 75.9563 2.60181ZM27.7259 79.6154C27.7259 76.2851 30.9413 73.371 34.616 73.371H41.506V85.8597H34.616C30.9413 85.8597 27.7259 82.9457 27.7259 79.6154ZM59.8795 100.43C59.8795 103.76 56.6642 106.674 52.9895 106.674H50.6928V94.1855H52.9895C56.6642 94.1855 59.8795 97.0996 59.8795 100.43Z" fill="#60A018"/>
</svg>
