<svg width="115" height="115" viewBox="0 0 115 115" fill="none" xmlns="http://www.w3.org/2000/svg">
<path d="M0 46.488V89.613C0 93.5886 3.21191 96.8005 7.1875 96.8005H21.5625V71.6443C21.5625 69.6677 23.1797 68.0505 25.1562 68.0505C27.1328 68.0505 28.75 69.6677 28.75 71.6443V96.8005H43.125V71.6443C43.125 69.6677 44.7422 68.0505 46.7188 68.0505C48.6953 68.0505 50.3125 69.6677 50.3125 71.6443V96.8005H64.6875V71.6443C64.6875 69.6677 66.3047 68.0505 68.2812 68.0505C70.2578 68.0505 71.875 69.6677 71.875 71.6443V96.8005H86.25V71.6443C86.25 69.6677 87.8672 68.0505 89.8438 68.0505C91.8203 68.0505 93.4375 69.6677 93.4375 71.6443V96.8005H107.812C111.788 96.8005 115 93.5886 115 89.613V46.488C115 42.5125 111.788 39.3005 107.812 39.3005H100.625V32.113C100.625 28.1375 97.4131 24.9255 93.4375 24.9255H86.25V17.738C86.25 13.7625 83.0381 10.5505 79.0625 10.5505H35.9375C31.9619 10.5505 28.75 13.7625 28.75 17.738V24.9255H21.5625C17.5869 24.9255 14.375 28.1375 14.375 32.113V39.3005H7.1875C3.21191 39.3005 0 42.5125 0 46.488Z" fill="#60A018"/>
</svg>
