<svg width="84" height="106" viewBox="0 0 84 106" fill="none" xmlns="http://www.w3.org/2000/svg">
<g clip-path="url(#clip0_672_164)">
<path d="M27.3006 19.875C28.9715 19.875 30.5739 18.828 31.7554 16.9644C32.9369 15.1007 33.6006 12.5731 33.6006 9.9375C33.6006 7.30191 32.9369 4.77427 31.7554 2.91063C30.5739 1.04698 28.9715 0 27.3006 0C25.6298 0 24.0273 1.04698 22.8459 2.91063C21.6644 4.77427 21.0006 7.30191 21.0006 9.9375C21.0006 12.5731 21.6644 15.1007 22.8459 16.9644C24.0273 18.828 25.6298 19.875 27.3006 19.875ZM16.2362 41.5098C16.3675 41.427 16.4856 41.3441 16.6169 41.2613L14.3987 54.4078C13.6637 58.7762 14.3856 63.4344 16.3281 66.7676L25.6075 82.7297L28.495 100.969C29.0594 104.509 31.3431 106.683 33.5875 105.793C35.8319 104.903 37.21 101.3 36.6456 97.7602L33.6269 78.6926C33.3775 77.0777 32.8656 75.6078 32.1569 74.3863L25.66 63.2066L28.1931 49.6461L29.4531 54.4078C30.0306 56.6023 31.0937 58.4035 32.4456 59.4801L35.95 62.2336C38.0237 63.8691 40.5437 62.5441 41.5806 59.273C42.6175 56.002 41.7775 52.027 39.7037 50.3914L36.8819 48.1762L34.8738 40.5574C32.6163 32.0484 27.34 26.5 21.4862 26.5C18.4937 26.5 15.5406 27.4938 12.8106 29.3984L11.7606 30.123C7.4425 33.1457 4.135 38.9012 2.65188 45.9609L2.31062 47.5758C1.57563 51.0539 2.77 54.8012 4.96187 55.9605C7.15375 57.1199 9.5425 55.2359 10.2775 51.7785L10.6187 50.1637C11.3669 46.6234 13.0206 43.7664 15.1731 42.2551L16.2231 41.5305L16.2362 41.5098ZM12.2987 69.4797L9.0175 82.3984L1.23437 94.6961C-0.40625 97.284 -0.40625 101.487 1.23437 104.075C2.875 106.663 5.53938 106.663 7.18 104.075L15.265 91.3008C15.8687 90.3484 16.3412 89.2098 16.6562 87.9676L18.5594 80.473L13.2175 71.2809C12.8894 70.7219 12.5875 70.1215 12.2987 69.5004V69.4797ZM72.2669 31.7586C70.6262 29.1707 67.9619 29.1707 66.3212 31.7586C64.6806 34.3465 64.6806 38.5492 66.3212 41.1371L69.655 46.375H50.4006C48.0775 46.375 46.2006 49.3355 46.2006 53C46.2006 56.6645 48.0775 59.625 50.4006 59.625H69.655L66.3212 64.8836C64.6806 67.4715 64.6806 71.6742 66.3212 74.2621C67.9619 76.85 70.6262 76.85 72.2669 74.2621L82.7669 57.6996C84.4075 55.1117 84.4075 50.909 82.7669 48.3211L72.2669 31.7586Z" fill="#60A018"/>
</g>
<defs>
<clipPath id="clip0_672_164">
<rect width="84" height="106" fill="white"/>
</clipPath>
</defs>
</svg>
