<svg width="93" height="99" viewBox="0 0 93 99" fill="none" xmlns="http://www.w3.org/2000/svg">
<path d="M46.5 0C47.3912 0 48.2825 0.194423 49.0962 0.563826L85.5793 16.0982C89.8418 17.9063 93.0193 22.1253 92.9999 27.2192C92.903 46.5059 84.9981 81.7936 51.615 97.8335C48.3794 99.3888 44.6206 99.3888 41.385 97.8335C8.00195 81.7936 0.0969629 46.5059 8.81269e-05 27.2192C-0.0192868 22.1253 3.15821 17.9063 7.4207 16.0982L43.9231 0.563826C44.7175 0.194423 45.6088 0 46.5 0ZM46.5 12.9874V86.4792C73.2375 73.4917 80.4256 44.7366 80.5999 27.4914L46.5 12.9874Z" fill="#60A018"/>
</svg>
