<svg width="71" height="112" viewBox="0 0 71 112" fill="none" xmlns="http://www.w3.org/2000/svg">
<path d="M0 14C0 6.27813 5.78892 0 12.9091 0H58.0909C65.2111 0 71 6.27813 71 14V98C71 105.722 65.2111 112 58.0909 112H12.9091C5.78892 112 0 105.722 0 98V14ZM41.9545 98C41.9545 96.1435 41.2745 94.363 40.0641 93.0503C38.8536 91.7375 37.2119 91 35.5 91C33.7881 91 32.1464 91.7375 30.9359 93.0503C29.7255 94.363 29.0455 96.1435 29.0455 98C29.0455 99.8565 29.7255 101.637 30.9359 102.95C32.1464 104.263 33.7881 105 35.5 105C37.2119 105 38.8536 104.263 40.0641 102.95C41.2745 101.637 41.9545 99.8565 41.9545 98ZM58.0909 14H12.9091V84H58.0909V14Z" fill="#60A018"/>
</svg>
