<svg width="127" height="102" viewBox="0 0 127 102" fill="none" xmlns="http://www.w3.org/2000/svg">
<path d="M10.756 40.4215C24.4482 27.2332 43.022 19.125 63.5007 19.125C83.9795 19.125 102.553 27.2332 116.245 40.4215C118.785 42.852 122.794 42.7723 125.215 40.2422C127.636 37.7121 127.556 33.668 125.036 31.2375C109.082 15.8379 87.3926 6.375 63.5007 6.375C39.6089 6.375 17.9196 15.8379 1.94542 31.2176C-0.574734 33.668 -0.654109 37.6922 1.76683 40.2422C4.18777 42.7922 8.21605 42.8719 10.7362 40.4215H10.756ZM63.5007 51C74.772 51 85.051 55.2035 92.9092 62.1562C95.5484 64.4871 99.5568 64.2281 101.879 61.5984C104.2 58.9688 103.942 54.9246 101.323 52.5938C91.2423 43.6688 77.9867 38.25 63.5007 38.25C49.0148 38.25 35.7592 43.6688 25.6984 52.5938C23.0592 54.9246 22.821 58.9488 25.1428 61.5984C27.4645 64.248 31.4729 64.4871 34.1121 62.1562C41.9504 55.2035 52.2295 51 63.5206 51H63.5007ZM76.2007 82.875C76.2007 79.4935 74.8627 76.2505 72.481 73.8594C70.0993 71.4683 66.869 70.125 63.5007 70.125C60.1325 70.125 56.9022 71.4683 54.5205 73.8594C52.1388 76.2505 50.8007 79.4935 50.8007 82.875C50.8007 86.2565 52.1388 89.4995 54.5205 91.8906C56.9022 94.2817 60.1325 95.625 63.5007 95.625C66.869 95.625 70.0993 94.2817 72.481 91.8906C74.8627 89.4995 76.2007 86.2565 76.2007 82.875Z" fill="#60A018"/>
</svg>
